<svg xmlns="http://www.w3.org/2000/svg" version="1.1" xmlns:xlink="http://www.w3.org/1999/xlink" xmlns:svgjs="http://svgjs.com/svgjs" width="1500" height="745" preserveAspectRatio="none" viewBox="0 0 1500 745"><g mask="url(&quot;#SvgjsMask1022&quot;)" fill="none"><rect width="1500" height="745" x="0" y="0" fill="rgba(17, 17, 17, 1)"></rect><path d="M-65.09 538.47L-65.09 538.47" stroke="rgba(35, 35, 35, 1)" stroke-width="1.5"></path><path d="M-65.09 538.47L41.2 505.52" stroke="rgba(35, 35, 35, 1)" stroke-width="1.5"></path><path d="M-65.09 538.47L-88.9 665.97" stroke="rgba(35, 35, 35, 1)" stroke-width="1.5"></path><path d="M-65.09 538.47L54.75 686.57" stroke="rgba(35, 35, 35, 1)" stroke-width="1.5"></path><path d="M-88.9 665.97L-88.9 665.97" stroke="rgba(35, 35, 35, 1)" stroke-width="1.5"></path><path d="M-88.9 665.97L54.75 686.57" stroke="rgba(35, 35, 35, 1)" stroke-width="1.5"></path><path d="M-88.9 665.97L-38.08 809.04" stroke="rgba(35, 35, 35, 1)" stroke-width="1.5"></path><path d="M-88.9 665.97L41.2 505.52" stroke="rgba(35, 35, 35, 1)" stroke-width="1.5"></path><path d="M-38.08 809.04L-38.08 809.04" stroke="rgba(35, 35, 35, 1)" stroke-width="1.5"></path><path d="M-38.08 809.04L84.75 826.76" stroke="rgba(35, 35, 35, 1)" stroke-width="1.5"></path><path d="M41.2 505.52L41.2 505.52" stroke="rgba(35, 35, 35, 1)" stroke-width="1.5"></path><path d="M41.2 505.52L204.45 548.7" stroke="rgba(35, 35, 35, 1)" stroke-width="1.5"></path><path d="M54.75 686.57L54.75 686.57" stroke="rgba(35, 35, 35, 1)" stroke-width="1.5"></path><path d="M54.75 686.57L84.75 826.76" stroke="rgba(35, 35, 35, 1)" stroke-width="1.5"></path><path d="M54.75 686.57L-38.08 809.04" stroke="rgba(35, 35, 35, 1)" stroke-width="1.5"></path><path d="M54.75 686.57L235.24 680.4" stroke="rgba(35, 35, 35, 1)" stroke-width="1.5"></path><path d="M84.75 826.76L84.75 826.76" stroke="rgba(35, 35, 35, 1)" stroke-width="1.5"></path><path d="M84.75 826.76L235.24 680.4" stroke="rgba(35, 35, 35, 1)" stroke-width="1.5"></path><path d="M84.75 826.76L-88.9 665.97" stroke="rgba(35, 35, 35, 1)" stroke-width="1.5"></path><path d="M204.45 548.7L204.45 548.7" stroke="rgba(35, 35, 35, 1)" stroke-width="1.5"></path><path d="M204.45 548.7L235.24 680.4" stroke="rgba(35, 35, 35, 1)" stroke-width="1.5"></path><path d="M204.45 548.7L366.56 533.58" stroke="rgba(35, 35, 35, 1)" stroke-width="1.5"></path><path d="M235.24 680.4L235.24 680.4" stroke="rgba(35, 35, 35, 1)" stroke-width="1.5"></path><path d="M235.24 680.4L378.21 705.2" stroke="rgba(35, 35, 35, 1)" stroke-width="1.5"></path><path d="M235.24 680.4L375.8 791.65" stroke="rgba(35, 35, 35, 1)" stroke-width="1.5"></path><path d="M366.56 533.58L366.56 533.58" stroke="rgba(35, 35, 35, 1)" stroke-width="1.5"></path><path d="M366.56 533.58L378.21 705.2" stroke="rgba(35, 35, 35, 1)" stroke-width="1.5"></path><path d="M378.21 705.2L378.21 705.2" stroke="rgba(35, 35, 35, 1)" stroke-width="1.5"></path><path d="M378.21 705.2L375.8 791.65" stroke="rgba(35, 35, 35, 1)" stroke-width="1.5"></path><path d="M375.8 791.65L375.8 791.65" stroke="rgba(35, 35, 35, 1)" stroke-width="1.5"></path><path d="M375.8 791.65L499.35 839.86" stroke="rgba(35, 35, 35, 1)" stroke-width="1.5"></path><path d="M375.8 791.65L500.46 684.08" stroke="rgba(35, 35, 35, 1)" stroke-width="1.5"></path><path d="M375.8 791.65L366.56 533.58" stroke="rgba(35, 35, 35, 1)" stroke-width="1.5"></path><path d="M375.8 791.65L84.75 826.76" stroke="rgba(35, 35, 35, 1)" stroke-width="1.5"></path><path d="M522.11 372.09L522.11 372.09" stroke="rgba(35, 35, 35, 1)" stroke-width="1.5"></path><path d="M522.11 372.09L551.87 503.98" stroke="rgba(35, 35, 35, 1)" stroke-width="1.5"></path><path d="M522.11 372.09L658.3 403.26" stroke="rgba(35, 35, 35, 1)" stroke-width="1.5"></path><path d="M522.11 372.09L366.56 533.58" stroke="rgba(35, 35, 35, 1)" stroke-width="1.5"></path><path d="M551.87 503.98L551.87 503.98" stroke="rgba(35, 35, 35, 1)" stroke-width="1.5"></path><path d="M551.87 503.98L658.3 403.26" stroke="rgba(35, 35, 35, 1)" stroke-width="1.5"></path><path d="M551.87 503.98L710.14 538.6" stroke="rgba(35, 35, 35, 1)" stroke-width="1.5"></path><path d="M551.87 503.98L500.46 684.08" stroke="rgba(35, 35, 35, 1)" stroke-width="1.5"></path><path d="M551.87 503.98L366.56 533.58" stroke="rgba(35, 35, 35, 1)" stroke-width="1.5"></path><path d="M500.46 684.08L500.46 684.08" stroke="rgba(35, 35, 35, 1)" stroke-width="1.5"></path><path d="M500.46 684.08L378.21 705.2" stroke="rgba(35, 35, 35, 1)" stroke-width="1.5"></path><path d="M500.46 684.08L499.35 839.86" stroke="rgba(35, 35, 35, 1)" stroke-width="1.5"></path><path d="M499.35 839.86L499.35 839.86" stroke="rgba(35, 35, 35, 1)" stroke-width="1.5"></path><path d="M499.35 839.86L668.92 852.16" stroke="rgba(35, 35, 35, 1)" stroke-width="1.5"></path><path d="M499.35 839.86L378.21 705.2" stroke="rgba(35, 35, 35, 1)" stroke-width="1.5"></path><path d="M499.35 839.86L690.65 673.86" stroke="rgba(35, 35, 35, 1)" stroke-width="1.5"></path><path d="M499.35 839.86L235.24 680.4" stroke="rgba(35, 35, 35, 1)" stroke-width="1.5"></path><path d="M658.3 403.26L658.3 403.26" stroke="rgba(35, 35, 35, 1)" stroke-width="1.5"></path><path d="M658.3 403.26L793.82 388.54" stroke="rgba(35, 35, 35, 1)" stroke-width="1.5"></path><path d="M658.3 403.26L710.14 538.6" stroke="rgba(35, 35, 35, 1)" stroke-width="1.5"></path><path d="M658.3 403.26L859.05 528.4" stroke="rgba(35, 35, 35, 1)" stroke-width="1.5"></path><path d="M710.14 538.6L710.14 538.6" stroke="rgba(35, 35, 35, 1)" stroke-width="1.5"></path><path d="M710.14 538.6L690.65 673.86" stroke="rgba(35, 35, 35, 1)" stroke-width="1.5"></path><path d="M710.14 538.6L859.05 528.4" stroke="rgba(35, 35, 35, 1)" stroke-width="1.5"></path><path d="M710.14 538.6L793.82 388.54" stroke="rgba(35, 35, 35, 1)" stroke-width="1.5"></path><path d="M710.14 538.6L828.89 690.02" stroke="rgba(35, 35, 35, 1)" stroke-width="1.5"></path><path d="M690.65 673.86L690.65 673.86" stroke="rgba(35, 35, 35, 1)" stroke-width="1.5"></path><path d="M690.65 673.86L828.89 690.02" stroke="rgba(35, 35, 35, 1)" stroke-width="1.5"></path><path d="M690.65 673.86L668.92 852.16" stroke="rgba(35, 35, 35, 1)" stroke-width="1.5"></path><path d="M690.65 673.86L500.46 684.08" stroke="rgba(35, 35, 35, 1)" stroke-width="1.5"></path><path d="M690.65 673.86L848.81 806.95" stroke="rgba(35, 35, 35, 1)" stroke-width="1.5"></path><path d="M690.65 673.86L551.87 503.98" stroke="rgba(35, 35, 35, 1)" stroke-width="1.5"></path><path d="M668.92 852.16L668.92 852.16" stroke="rgba(35, 35, 35, 1)" stroke-width="1.5"></path><path d="M668.92 852.16L848.81 806.95" stroke="rgba(35, 35, 35, 1)" stroke-width="1.5"></path><path d="M802.03 208.11L802.03 208.11" stroke="rgba(35, 35, 35, 1)" stroke-width="1.5"></path><path d="M802.03 208.11L944.25 222.7" stroke="rgba(35, 35, 35, 1)" stroke-width="1.5"></path><path d="M802.03 208.11L793.82 388.54" stroke="rgba(35, 35, 35, 1)" stroke-width="1.5"></path><path d="M793.82 388.54L793.82 388.54" stroke="rgba(35, 35, 35, 1)" stroke-width="1.5"></path><path d="M793.82 388.54L859.05 528.4" stroke="rgba(35, 35, 35, 1)" stroke-width="1.5"></path><path d="M793.82 388.54L967.4 493.13" stroke="rgba(35, 35, 35, 1)" stroke-width="1.5"></path><path d="M793.82 388.54L997.54 402.87" stroke="rgba(35, 35, 35, 1)" stroke-width="1.5"></path><path d="M859.05 528.4L859.05 528.4" stroke="rgba(35, 35, 35, 1)" stroke-width="1.5"></path><path d="M859.05 528.4L967.4 493.13" stroke="rgba(35, 35, 35, 1)" stroke-width="1.5"></path><path d="M828.89 690.02L828.89 690.02" stroke="rgba(35, 35, 35, 1)" stroke-width="1.5"></path><path d="M828.89 690.02L848.81 806.95" stroke="rgba(35, 35, 35, 1)" stroke-width="1.5"></path><path d="M828.89 690.02L956.62 661.72" stroke="rgba(35, 35, 35, 1)" stroke-width="1.5"></path><path d="M828.89 690.02L859.05 528.4" stroke="rgba(35, 35, 35, 1)" stroke-width="1.5"></path><path d="M848.81 806.95L848.81 806.95" stroke="rgba(35, 35, 35, 1)" stroke-width="1.5"></path><path d="M999.99 -48.3L999.99 -48.3" stroke="rgba(35, 35, 35, 1)" stroke-width="1.5"></path><path d="M999.99 -48.3L978.24 60.62" stroke="rgba(35, 35, 35, 1)" stroke-width="1.5"></path><path d="M999.99 -48.3L1131.07 61.63" stroke="rgba(35, 35, 35, 1)" stroke-width="1.5"></path><path d="M999.99 -48.3L944.25 222.7" stroke="rgba(35, 35, 35, 1)" stroke-width="1.5"></path><path d="M999.99 -48.3L1107.98 216.41" stroke="rgba(35, 35, 35, 1)" stroke-width="1.5"></path><path d="M978.24 60.62L978.24 60.62" stroke="rgba(35, 35, 35, 1)" stroke-width="1.5"></path><path d="M978.24 60.62L1131.07 61.63" stroke="rgba(35, 35, 35, 1)" stroke-width="1.5"></path><path d="M978.24 60.62L944.25 222.7" stroke="rgba(35, 35, 35, 1)" stroke-width="1.5"></path><path d="M978.24 60.62L1107.98 216.41" stroke="rgba(35, 35, 35, 1)" stroke-width="1.5"></path><path d="M944.25 222.7L944.25 222.7" stroke="rgba(35, 35, 35, 1)" stroke-width="1.5"></path><path d="M997.54 402.87L997.54 402.87" stroke="rgba(35, 35, 35, 1)" stroke-width="1.5"></path><path d="M997.54 402.87L967.4 493.13" stroke="rgba(35, 35, 35, 1)" stroke-width="1.5"></path><path d="M997.54 402.87L1106.56 380.79" stroke="rgba(35, 35, 35, 1)" stroke-width="1.5"></path><path d="M967.4 493.13L967.4 493.13" stroke="rgba(35, 35, 35, 1)" stroke-width="1.5"></path><path d="M956.62 661.72L956.62 661.72" stroke="rgba(35, 35, 35, 1)" stroke-width="1.5"></path><path d="M956.62 661.72L859.05 528.4" stroke="rgba(35, 35, 35, 1)" stroke-width="1.5"></path><path d="M956.62 661.72L967.4 493.13" stroke="rgba(35, 35, 35, 1)" stroke-width="1.5"></path><path d="M1005.76 857.5L1005.76 857.5" stroke="rgba(35, 35, 35, 1)" stroke-width="1.5"></path><path d="M1005.76 857.5L1137.57 806.24" stroke="rgba(35, 35, 35, 1)" stroke-width="1.5"></path><path d="M1005.76 857.5L848.81 806.95" stroke="rgba(35, 35, 35, 1)" stroke-width="1.5"></path><path d="M1005.76 857.5L956.62 661.72" stroke="rgba(35, 35, 35, 1)" stroke-width="1.5"></path><path d="M1005.76 857.5L1129.71 660.91" stroke="rgba(35, 35, 35, 1)" stroke-width="1.5"></path><path d="M1005.76 857.5L828.89 690.02" stroke="rgba(35, 35, 35, 1)" stroke-width="1.5"></path><path d="M1005.76 857.5L1258.1 848.8" stroke="rgba(35, 35, 35, 1)" stroke-width="1.5"></path><path d="M1131.07 61.63L1131.07 61.63" stroke="rgba(35, 35, 35, 1)" stroke-width="1.5"></path><path d="M1131.07 61.63L1107.98 216.41" stroke="rgba(35, 35, 35, 1)" stroke-width="1.5"></path><path d="M1131.07 61.63L1298.35 90.22" stroke="rgba(35, 35, 35, 1)" stroke-width="1.5"></path><path d="M1107.98 216.41L1107.98 216.41" stroke="rgba(35, 35, 35, 1)" stroke-width="1.5"></path><path d="M1106.56 380.79L1106.56 380.79" stroke="rgba(35, 35, 35, 1)" stroke-width="1.5"></path><path d="M1106.56 380.79L1155.95 515.85" stroke="rgba(35, 35, 35, 1)" stroke-width="1.5"></path><path d="M1106.56 380.79L1107.98 216.41" stroke="rgba(35, 35, 35, 1)" stroke-width="1.5"></path><path d="M1106.56 380.79L1272.19 409.19" stroke="rgba(35, 35, 35, 1)" stroke-width="1.5"></path><path d="M1106.56 380.79L967.4 493.13" stroke="rgba(35, 35, 35, 1)" stroke-width="1.5"></path><path d="M1106.56 380.79L1257.67 524.14" stroke="rgba(35, 35, 35, 1)" stroke-width="1.5"></path><path d="M1155.95 515.85L1155.95 515.85" stroke="rgba(35, 35, 35, 1)" stroke-width="1.5"></path><path d="M1155.95 515.85L1257.67 524.14" stroke="rgba(35, 35, 35, 1)" stroke-width="1.5"></path><path d="M1155.95 515.85L1129.71 660.91" stroke="rgba(35, 35, 35, 1)" stroke-width="1.5"></path><path d="M1155.95 515.85L1272.19 409.19" stroke="rgba(35, 35, 35, 1)" stroke-width="1.5"></path><path d="M1155.95 515.85L1245.23 662.35" stroke="rgba(35, 35, 35, 1)" stroke-width="1.5"></path><path d="M1129.71 660.91L1129.71 660.91" stroke="rgba(35, 35, 35, 1)" stroke-width="1.5"></path><path d="M1129.71 660.91L1245.23 662.35" stroke="rgba(35, 35, 35, 1)" stroke-width="1.5"></path><path d="M1129.71 660.91L1137.57 806.24" stroke="rgba(35, 35, 35, 1)" stroke-width="1.5"></path><path d="M1137.57 806.24L1137.57 806.24" stroke="rgba(35, 35, 35, 1)" stroke-width="1.5"></path><path d="M1137.57 806.24L1258.1 848.8" stroke="rgba(35, 35, 35, 1)" stroke-width="1.5"></path><path d="M1291.11 -54.86L1291.11 -54.86" stroke="rgba(35, 35, 35, 1)" stroke-width="1.5"></path><path d="M1291.11 -54.86L1298.35 90.22" stroke="rgba(35, 35, 35, 1)" stroke-width="1.5"></path><path d="M1291.11 -54.86L1450.59 -84.02" stroke="rgba(35, 35, 35, 1)" stroke-width="1.5"></path><path d="M1291.11 -54.86L1131.07 61.63" stroke="rgba(35, 35, 35, 1)" stroke-width="1.5"></path><path d="M1298.35 90.22L1298.35 90.22" stroke="rgba(35, 35, 35, 1)" stroke-width="1.5"></path><path d="M1298.35 90.22L1267.92 194.31" stroke="rgba(35, 35, 35, 1)" stroke-width="1.5"></path><path d="M1298.35 90.22L1458.39 80.65" stroke="rgba(35, 35, 35, 1)" stroke-width="1.5"></path><path d="M1298.35 90.22L1429.45 255.54" stroke="rgba(35, 35, 35, 1)" stroke-width="1.5"></path><path d="M1267.92 194.31L1267.92 194.31" stroke="rgba(35, 35, 35, 1)" stroke-width="1.5"></path><path d="M1267.92 194.31L1107.98 216.41" stroke="rgba(35, 35, 35, 1)" stroke-width="1.5"></path><path d="M1267.92 194.31L1429.45 255.54" stroke="rgba(35, 35, 35, 1)" stroke-width="1.5"></path><path d="M1267.92 194.31L1131.07 61.63" stroke="rgba(35, 35, 35, 1)" stroke-width="1.5"></path><path d="M1272.19 409.19L1272.19 409.19" stroke="rgba(35, 35, 35, 1)" stroke-width="1.5"></path><path d="M1272.19 409.19L1257.67 524.14" stroke="rgba(35, 35, 35, 1)" stroke-width="1.5"></path><path d="M1272.19 409.19L1456.44 369.37" stroke="rgba(35, 35, 35, 1)" stroke-width="1.5"></path><path d="M1272.19 409.19L1267.92 194.31" stroke="rgba(35, 35, 35, 1)" stroke-width="1.5"></path><path d="M1272.19 409.19L1429.45 255.54" stroke="rgba(35, 35, 35, 1)" stroke-width="1.5"></path><path d="M1257.67 524.14L1257.67 524.14" stroke="rgba(35, 35, 35, 1)" stroke-width="1.5"></path><path d="M1245.23 662.35L1245.23 662.35" stroke="rgba(35, 35, 35, 1)" stroke-width="1.5"></path><path d="M1245.23 662.35L1257.67 524.14" stroke="rgba(35, 35, 35, 1)" stroke-width="1.5"></path><path d="M1245.23 662.35L1137.57 806.24" stroke="rgba(35, 35, 35, 1)" stroke-width="1.5"></path><path d="M1258.1 848.8L1258.1 848.8" stroke="rgba(35, 35, 35, 1)" stroke-width="1.5"></path><path d="M1258.1 848.8L1395.62 835.09" stroke="rgba(35, 35, 35, 1)" stroke-width="1.5"></path><path d="M1258.1 848.8L1245.23 662.35" stroke="rgba(35, 35, 35, 1)" stroke-width="1.5"></path><path d="M1258.1 848.8L1431.85 708.92" stroke="rgba(35, 35, 35, 1)" stroke-width="1.5"></path><path d="M1258.1 848.8L1129.71 660.91" stroke="rgba(35, 35, 35, 1)" stroke-width="1.5"></path><path d="M1450.59 -84.02L1450.59 -84.02" stroke="rgba(35, 35, 35, 1)" stroke-width="1.5"></path><path d="M1450.59 -84.02L1458.39 80.65" stroke="rgba(35, 35, 35, 1)" stroke-width="1.5"></path><path d="M1450.59 -84.02L1298.35 90.22" stroke="rgba(35, 35, 35, 1)" stroke-width="1.5"></path><path d="M1458.39 80.65L1458.39 80.65" stroke="rgba(35, 35, 35, 1)" stroke-width="1.5"></path><path d="M1458.39 80.65L1597.59 98.12" stroke="rgba(35, 35, 35, 1)" stroke-width="1.5"></path><path d="M1458.39 80.65L1429.45 255.54" stroke="rgba(35, 35, 35, 1)" stroke-width="1.5"></path><path d="M1458.39 80.65L1579.1 241.72" stroke="rgba(35, 35, 35, 1)" stroke-width="1.5"></path><path d="M1429.45 255.54L1429.45 255.54" stroke="rgba(35, 35, 35, 1)" stroke-width="1.5"></path><path d="M1429.45 255.54L1456.44 369.37" stroke="rgba(35, 35, 35, 1)" stroke-width="1.5"></path><path d="M1429.45 255.54L1579.1 241.72" stroke="rgba(35, 35, 35, 1)" stroke-width="1.5"></path><path d="M1429.45 255.54L1586.55 388.13" stroke="rgba(35, 35, 35, 1)" stroke-width="1.5"></path><path d="M1456.44 369.37L1456.44 369.37" stroke="rgba(35, 35, 35, 1)" stroke-width="1.5"></path><path d="M1456.44 369.37L1586.55 388.13" stroke="rgba(35, 35, 35, 1)" stroke-width="1.5"></path><path d="M1456.44 369.37L1461.3 525.67" stroke="rgba(35, 35, 35, 1)" stroke-width="1.5"></path><path d="M1456.44 369.37L1579.1 241.72" stroke="rgba(35, 35, 35, 1)" stroke-width="1.5"></path><path d="M1456.44 369.37L1604.48 519.02" stroke="rgba(35, 35, 35, 1)" stroke-width="1.5"></path><path d="M1461.3 525.67L1461.3 525.67" stroke="rgba(35, 35, 35, 1)" stroke-width="1.5"></path><path d="M1461.3 525.67L1604.48 519.02" stroke="rgba(35, 35, 35, 1)" stroke-width="1.5"></path><path d="M1461.3 525.67L1431.85 708.92" stroke="rgba(35, 35, 35, 1)" stroke-width="1.5"></path><path d="M1461.3 525.67L1586.55 388.13" stroke="rgba(35, 35, 35, 1)" stroke-width="1.5"></path><path d="M1461.3 525.67L1257.67 524.14" stroke="rgba(35, 35, 35, 1)" stroke-width="1.5"></path><path d="M1461.3 525.67L1272.19 409.19" stroke="rgba(35, 35, 35, 1)" stroke-width="1.5"></path><path d="M1431.85 708.92L1431.85 708.92" stroke="rgba(35, 35, 35, 1)" stroke-width="1.5"></path><path d="M1431.85 708.92L1395.62 835.09" stroke="rgba(35, 35, 35, 1)" stroke-width="1.5"></path><path d="M1431.85 708.92L1604.4 704.44" stroke="rgba(35, 35, 35, 1)" stroke-width="1.5"></path><path d="M1431.85 708.92L1245.23 662.35" stroke="rgba(35, 35, 35, 1)" stroke-width="1.5"></path><path d="M1395.62 835.09L1395.62 835.09" stroke="rgba(35, 35, 35, 1)" stroke-width="1.5"></path><path d="M1395.62 835.09L1579.02 855.7" stroke="rgba(35, 35, 35, 1)" stroke-width="1.5"></path><path d="M1395.62 835.09L1245.23 662.35" stroke="rgba(35, 35, 35, 1)" stroke-width="1.5"></path><path d="M1395.62 835.09L1604.4 704.44" stroke="rgba(35, 35, 35, 1)" stroke-width="1.5"></path><path d="M1597.59 98.12L1597.59 98.12" stroke="rgba(35, 35, 35, 1)" stroke-width="1.5"></path><path d="M1597.59 98.12L1579.1 241.72" stroke="rgba(35, 35, 35, 1)" stroke-width="1.5"></path><path d="M1597.59 98.12L1429.45 255.54" stroke="rgba(35, 35, 35, 1)" stroke-width="1.5"></path><path d="M1597.59 98.12L1450.59 -84.02" stroke="rgba(35, 35, 35, 1)" stroke-width="1.5"></path><path d="M1597.59 98.12L1586.55 388.13" stroke="rgba(35, 35, 35, 1)" stroke-width="1.5"></path><path d="M1579.1 241.72L1579.1 241.72" stroke="rgba(35, 35, 35, 1)" stroke-width="1.5"></path><path d="M1579.1 241.72L1586.55 388.13" stroke="rgba(35, 35, 35, 1)" stroke-width="1.5"></path><path d="M1586.55 388.13L1586.55 388.13" stroke="rgba(35, 35, 35, 1)" stroke-width="1.5"></path><path d="M1586.55 388.13L1604.48 519.02" stroke="rgba(35, 35, 35, 1)" stroke-width="1.5"></path><path d="M1604.48 519.02L1604.48 519.02" stroke="rgba(35, 35, 35, 1)" stroke-width="1.5"></path><path d="M1604.48 519.02L1604.4 704.44" stroke="rgba(35, 35, 35, 1)" stroke-width="1.5"></path><path d="M1604.48 519.02L1431.85 708.92" stroke="rgba(35, 35, 35, 1)" stroke-width="1.5"></path><path d="M1604.48 519.02L1579.1 241.72" stroke="rgba(35, 35, 35, 1)" stroke-width="1.5"></path><path d="M1604.4 704.44L1604.4 704.44" stroke="rgba(35, 35, 35, 1)" stroke-width="1.5"></path><path d="M1604.4 704.44L1579.02 855.7" stroke="rgba(35, 35, 35, 1)" stroke-width="1.5"></path><path d="M1579.02 855.7L1579.02 855.7" stroke="rgba(35, 35, 35, 1)" stroke-width="1.5"></path><path d="M1579.02 855.7L1431.85 708.92" stroke="rgba(35, 35, 35, 1)" stroke-width="1.5"></path><path d="M1579.02 855.7L1258.1 848.8" stroke="rgba(35, 35, 35, 1)" stroke-width="1.5"></path><path d="M1579.02 855.7L1604.48 519.02" stroke="rgba(35, 35, 35, 1)" stroke-width="1.5"></path><path d="M1579.02 855.7L1461.3 525.67" stroke="rgba(35, 35, 35, 1)" stroke-width="1.5"></path><circle r="5" cx="-65.09" cy="538.47" fill="rgba(35, 35, 35, 1)"></circle><circle r="5" cx="-88.9" cy="665.97" fill="rgba(35, 35, 35, 1)"></circle><circle r="5" cx="-38.08" cy="809.04" fill="rgba(35, 35, 35, 1)"></circle><circle r="5" cx="41.2" cy="505.52" fill="rgba(35, 35, 35, 1)"></circle><circle r="5" cx="54.75" cy="686.57" fill="rgba(35, 35, 35, 1)"></circle><circle r="5" cx="84.75" cy="826.76" fill="rgba(35, 35, 35, 1)"></circle><circle r="5" cx="204.45" cy="548.7" fill="rgba(35, 35, 35, 1)"></circle><circle r="5" cx="235.24" cy="680.4" fill="rgba(35, 35, 35, 1)"></circle><circle r="5" cx="366.56" cy="533.58" fill="rgba(35, 35, 35, 1)"></circle><circle r="5" cx="378.21" cy="705.2" fill="rgba(35, 35, 35, 1)"></circle><circle r="5" cx="375.8" cy="791.65" fill="rgba(35, 35, 35, 1)"></circle><circle r="5" cx="522.11" cy="372.09" fill="rgba(35, 35, 35, 1)"></circle><circle r="5" cx="551.87" cy="503.98" fill="rgba(35, 35, 35, 1)"></circle><circle r="5" cx="500.46" cy="684.08" fill="rgba(35, 35, 35, 1)"></circle><circle r="5" cx="499.35" cy="839.86" fill="rgba(35, 35, 35, 1)"></circle><circle r="5" cx="658.3" cy="403.26" fill="rgba(35, 35, 35, 1)"></circle><circle r="5" cx="710.14" cy="538.6" fill="rgba(35, 35, 35, 1)"></circle><circle r="5" cx="690.65" cy="673.86" fill="rgba(35, 35, 35, 1)"></circle><circle r="5" cx="668.92" cy="852.16" fill="rgba(35, 35, 35, 1)"></circle><circle r="5" cx="802.03" cy="208.11" fill="rgba(35, 35, 35, 1)"></circle><circle r="5" cx="793.82" cy="388.54" fill="rgba(35, 35, 35, 1)"></circle><circle r="5" cx="859.05" cy="528.4" fill="rgba(35, 35, 35, 1)"></circle><circle r="5" cx="828.89" cy="690.02" fill="rgba(35, 35, 35, 1)"></circle><circle r="5" cx="848.81" cy="806.95" fill="rgba(35, 35, 35, 1)"></circle><circle r="5" cx="999.99" cy="-48.3" fill="rgba(35, 35, 35, 1)"></circle><circle r="5" cx="978.24" cy="60.62" fill="rgba(35, 35, 35, 1)"></circle><circle r="5" cx="944.25" cy="222.7" fill="rgba(35, 35, 35, 1)"></circle><circle r="5" cx="997.54" cy="402.87" fill="rgba(35, 35, 35, 1)"></circle><circle r="5" cx="967.4" cy="493.13" fill="rgba(35, 35, 35, 1)"></circle><circle r="5" cx="956.62" cy="661.72" fill="rgba(35, 35, 35, 1)"></circle><circle r="5" cx="1005.76" cy="857.5" fill="rgba(35, 35, 35, 1)"></circle><circle r="5" cx="1131.07" cy="61.63" fill="rgba(35, 35, 35, 1)"></circle><circle r="5" cx="1107.98" cy="216.41" fill="rgba(35, 35, 35, 1)"></circle><circle r="5" cx="1106.56" cy="380.79" fill="rgba(35, 35, 35, 1)"></circle><circle r="5" cx="1155.95" cy="515.85" fill="rgba(35, 35, 35, 1)"></circle><circle r="5" cx="1129.71" cy="660.91" fill="rgba(35, 35, 35, 1)"></circle><circle r="5" cx="1137.57" cy="806.24" fill="rgba(35, 35, 35, 1)"></circle><circle r="5" cx="1291.11" cy="-54.86" fill="rgba(35, 35, 35, 1)"></circle><circle r="5" cx="1298.35" cy="90.22" fill="rgba(35, 35, 35, 1)"></circle><circle r="5" cx="1267.92" cy="194.31" fill="rgba(35, 35, 35, 1)"></circle><circle r="5" cx="1272.19" cy="409.19" fill="rgba(35, 35, 35, 1)"></circle><circle r="5" cx="1257.67" cy="524.14" fill="rgba(35, 35, 35, 1)"></circle><circle r="5" cx="1245.23" cy="662.35" fill="rgba(35, 35, 35, 1)"></circle><circle r="5" cx="1258.1" cy="848.8" fill="rgba(35, 35, 35, 1)"></circle><circle r="5" cx="1450.59" cy="-84.02" fill="rgba(35, 35, 35, 1)"></circle><circle r="5" cx="1458.39" cy="80.65" fill="rgba(35, 35, 35, 1)"></circle><circle r="5" cx="1429.45" cy="255.54" fill="rgba(35, 35, 35, 1)"></circle><circle r="5" cx="1456.44" cy="369.37" fill="rgba(35, 35, 35, 1)"></circle><circle r="5" cx="1461.3" cy="525.67" fill="rgba(35, 35, 35, 1)"></circle><circle r="5" cx="1431.85" cy="708.92" fill="rgba(35, 35, 35, 1)"></circle><circle r="5" cx="1395.62" cy="835.09" fill="rgba(35, 35, 35, 1)"></circle><circle r="5" cx="1597.59" cy="98.12" fill="rgba(35, 35, 35, 1)"></circle><circle r="5" cx="1579.1" cy="241.72" fill="rgba(35, 35, 35, 1)"></circle><circle r="5" cx="1586.55" cy="388.13" fill="rgba(35, 35, 35, 1)"></circle><circle r="5" cx="1604.48" cy="519.02" fill="rgba(35, 35, 35, 1)"></circle><circle r="5" cx="1604.4" cy="704.44" fill="rgba(35, 35, 35, 1)"></circle><circle r="5" cx="1579.02" cy="855.7" fill="rgba(35, 35, 35, 1)"></circle><path d="M658.4 653.81L658.4 653.81" stroke="hsl(0, 0%, 42.3%)" stroke-width="1.5"></path><path d="M658.4 653.81L655.32 553.64" stroke="hsl(0, 0%, 42.3%)" stroke-width="1.5"></path><path d="M658.4 653.81L499.08 696.73" stroke="hsl(0, 0%, 42.3%)" stroke-width="1.5"></path><path d="M854.6 555.02L854.6 555.02" stroke="hsl(0, 0%, 42.3%)" stroke-width="1.5"></path><path d="M854.6 555.02L860.33 670.13" stroke="hsl(0, 0%, 42.3%)" stroke-width="1.5"></path><path d="M854.6 555.02L984.59 541.89" stroke="hsl(0, 0%, 42.3%)" stroke-width="1.5"></path><path d="M854.6 555.02L964.29 643.5" stroke="hsl(0, 0%, 42.3%)" stroke-width="1.5"></path><path d="M1258.08 363.43L1258.08 363.43" stroke="hsl(0, 0%, 42.3%)" stroke-width="1.5"></path><path d="M1258.08 363.43L1146.9 371.63" stroke="hsl(0, 0%, 42.3%)" stroke-width="1.5"></path><path d="M1258.08 363.43L1274.07 517.77" stroke="hsl(0, 0%, 42.3%)" stroke-width="1.5"></path><path d="M1602.05 549.6L1602.05 549.6" stroke="hsl(0, 0%, 42.3%)" stroke-width="1.5"></path><path d="M1602.05 549.6L1557.18 707.59" stroke="hsl(0, 0%, 42.3%)" stroke-width="1.5"></path><path d="M1602.05 549.6L1431.12 507.39" stroke="hsl(0, 0%, 42.3%)" stroke-width="1.5"></path><path d="M-45.21 711.77L-45.21 711.77" stroke="hsl(0, 0%, 42.3%)" stroke-width="1.5"></path><path d="M-45.21 711.77L60.75 679.51" stroke="hsl(0, 0%, 42.3%)" stroke-width="1.5"></path><path d="M-45.21 711.77L-66.24 846.49" stroke="hsl(0, 0%, 42.3%)" stroke-width="1.5"></path><path d="M-45.21 711.77L50.26 819.76" stroke="hsl(0, 0%, 42.3%)" stroke-width="1.5"></path><path d="M-45.21 711.77L240.29 681.64" stroke="hsl(0, 0%, 42.3%)" stroke-width="1.5"></path><path d="M-45.21 711.77L244.81 805.93" stroke="hsl(0, 0%, 42.3%)" stroke-width="1.5"></path><path d="M-66.24 846.49L-66.24 846.49" stroke="hsl(0, 0%, 42.3%)" stroke-width="1.5"></path><path d="M-66.24 846.49L50.26 819.76" stroke="hsl(0, 0%, 42.3%)" stroke-width="1.5"></path><path d="M-66.24 846.49L60.75 679.51" stroke="hsl(0, 0%, 42.3%)" stroke-width="1.5"></path><path d="M-66.24 846.49L244.81 805.93" stroke="hsl(0, 0%, 42.3%)" stroke-width="1.5"></path><path d="M-66.24 846.49L240.29 681.64" stroke="hsl(0, 0%, 42.3%)" stroke-width="1.5"></path><path d="M-66.24 846.49L386.1 844.82" stroke="hsl(0, 0%, 42.3%)" stroke-width="1.5"></path><path d="M60.75 679.51L60.75 679.51" stroke="hsl(0, 0%, 42.3%)" stroke-width="1.5"></path><path d="M60.75 679.51L50.26 819.76" stroke="hsl(0, 0%, 42.3%)" stroke-width="1.5"></path><path d="M50.26 819.76L50.26 819.76" stroke="hsl(0, 0%, 42.3%)" stroke-width="1.5"></path><path d="M50.26 819.76L244.81 805.93" stroke="hsl(0, 0%, 42.3%)" stroke-width="1.5"></path><path d="M50.26 819.76L240.29 681.64" stroke="hsl(0, 0%, 42.3%)" stroke-width="1.5"></path><path d="M50.26 819.76L386.1 844.82" stroke="hsl(0, 0%, 42.3%)" stroke-width="1.5"></path><path d="M240.29 681.64L240.29 681.64" stroke="hsl(0, 0%, 42.3%)" stroke-width="1.5"></path><path d="M240.29 681.64L244.81 805.93" stroke="hsl(0, 0%, 42.3%)" stroke-width="1.5"></path><path d="M240.29 681.64L365.77 691.01" stroke="hsl(0, 0%, 42.3%)" stroke-width="1.5"></path><path d="M244.81 805.93L244.81 805.93" stroke="hsl(0, 0%, 42.3%)" stroke-width="1.5"></path><path d="M244.81 805.93L386.1 844.82" stroke="hsl(0, 0%, 42.3%)" stroke-width="1.5"></path><path d="M244.81 805.93L365.77 691.01" stroke="hsl(0, 0%, 42.3%)" stroke-width="1.5"></path><path d="M365.77 691.01L365.77 691.01" stroke="hsl(0, 0%, 42.3%)" stroke-width="1.5"></path><path d="M365.77 691.01L499.08 696.73" stroke="hsl(0, 0%, 42.3%)" stroke-width="1.5"></path><path d="M365.77 691.01L386.1 844.82" stroke="hsl(0, 0%, 42.3%)" stroke-width="1.5"></path><path d="M365.77 691.01L531.19 811.6" stroke="hsl(0, 0%, 42.3%)" stroke-width="1.5"></path><path d="M365.77 691.01L658.4 653.81" stroke="hsl(0, 0%, 42.3%)" stroke-width="1.5"></path><path d="M386.1 844.82L386.1 844.82" stroke="hsl(0, 0%, 42.3%)" stroke-width="1.5"></path><path d="M386.1 844.82L531.19 811.6" stroke="hsl(0, 0%, 42.3%)" stroke-width="1.5"></path><path d="M386.1 844.82L499.08 696.73" stroke="hsl(0, 0%, 42.3%)" stroke-width="1.5"></path><path d="M386.1 844.82L240.29 681.64" stroke="hsl(0, 0%, 42.3%)" stroke-width="1.5"></path><path d="M499.08 696.73L499.08 696.73" stroke="hsl(0, 0%, 42.3%)" stroke-width="1.5"></path><path d="M499.08 696.73L531.19 811.6" stroke="hsl(0, 0%, 42.3%)" stroke-width="1.5"></path><path d="M499.08 696.73L655.32 553.64" stroke="hsl(0, 0%, 42.3%)" stroke-width="1.5"></path><path d="M499.08 696.73L240.29 681.64" stroke="hsl(0, 0%, 42.3%)" stroke-width="1.5"></path><path d="M531.19 811.6L531.19 811.6" stroke="hsl(0, 0%, 42.3%)" stroke-width="1.5"></path><path d="M531.19 811.6L658.4 653.81" stroke="hsl(0, 0%, 42.3%)" stroke-width="1.5"></path><path d="M531.19 811.6L795.74 839.58" stroke="hsl(0, 0%, 42.3%)" stroke-width="1.5"></path><path d="M531.19 811.6L655.32 553.64" stroke="hsl(0, 0%, 42.3%)" stroke-width="1.5"></path><path d="M655.32 553.64L655.32 553.64" stroke="hsl(0, 0%, 42.3%)" stroke-width="1.5"></path><path d="M655.32 553.64L854.6 555.02" stroke="hsl(0, 0%, 42.3%)" stroke-width="1.5"></path><path d="M655.32 553.64L860.33 670.13" stroke="hsl(0, 0%, 42.3%)" stroke-width="1.5"></path><path d="M860.33 670.13L860.33 670.13" stroke="hsl(0, 0%, 42.3%)" stroke-width="1.5"></path><path d="M860.33 670.13L964.29 643.5" stroke="hsl(0, 0%, 42.3%)" stroke-width="1.5"></path><path d="M860.33 670.13L984.59 541.89" stroke="hsl(0, 0%, 42.3%)" stroke-width="1.5"></path><path d="M860.33 670.13L795.74 839.58" stroke="hsl(0, 0%, 42.3%)" stroke-width="1.5"></path><path d="M860.33 670.13L940.53 837.05" stroke="hsl(0, 0%, 42.3%)" stroke-width="1.5"></path><path d="M860.33 670.13L658.4 653.81" stroke="hsl(0, 0%, 42.3%)" stroke-width="1.5"></path><path d="M795.74 839.58L795.74 839.58" stroke="hsl(0, 0%, 42.3%)" stroke-width="1.5"></path><path d="M795.74 839.58L940.53 837.05" stroke="hsl(0, 0%, 42.3%)" stroke-width="1.5"></path><path d="M995.5 379.11L995.5 379.11" stroke="hsl(0, 0%, 42.3%)" stroke-width="1.5"></path><path d="M995.5 379.11L1146.9 371.63" stroke="hsl(0, 0%, 42.3%)" stroke-width="1.5"></path><path d="M995.5 379.11L984.59 541.89" stroke="hsl(0, 0%, 42.3%)" stroke-width="1.5"></path><path d="M995.5 379.11L1113.41 538.07" stroke="hsl(0, 0%, 42.3%)" stroke-width="1.5"></path><path d="M995.5 379.11L854.6 555.02" stroke="hsl(0, 0%, 42.3%)" stroke-width="1.5"></path><path d="M995.5 379.11L1144.29 203.55" stroke="hsl(0, 0%, 42.3%)" stroke-width="1.5"></path><path d="M984.59 541.89L984.59 541.89" stroke="hsl(0, 0%, 42.3%)" stroke-width="1.5"></path><path d="M984.59 541.89L964.29 643.5" stroke="hsl(0, 0%, 42.3%)" stroke-width="1.5"></path><path d="M984.59 541.89L1113.41 538.07" stroke="hsl(0, 0%, 42.3%)" stroke-width="1.5"></path><path d="M964.29 643.5L964.29 643.5" stroke="hsl(0, 0%, 42.3%)" stroke-width="1.5"></path><path d="M964.29 643.5L1114.84 709.89" stroke="hsl(0, 0%, 42.3%)" stroke-width="1.5"></path><path d="M964.29 643.5L1113.41 538.07" stroke="hsl(0, 0%, 42.3%)" stroke-width="1.5"></path><path d="M964.29 643.5L940.53 837.05" stroke="hsl(0, 0%, 42.3%)" stroke-width="1.5"></path><path d="M940.53 837.05L940.53 837.05" stroke="hsl(0, 0%, 42.3%)" stroke-width="1.5"></path><path d="M940.53 837.05L1114.84 709.89" stroke="hsl(0, 0%, 42.3%)" stroke-width="1.5"></path><path d="M1144.29 203.55L1144.29 203.55" stroke="hsl(0, 0%, 42.3%)" stroke-width="1.5"></path><path d="M1144.29 203.55L1295.7 197.66" stroke="hsl(0, 0%, 42.3%)" stroke-width="1.5"></path><path d="M1144.29 203.55L1146.9 371.63" stroke="hsl(0, 0%, 42.3%)" stroke-width="1.5"></path><path d="M1144.29 203.55L1283.5 103.48" stroke="hsl(0, 0%, 42.3%)" stroke-width="1.5"></path><path d="M1146.9 371.63L1146.9 371.63" stroke="hsl(0, 0%, 42.3%)" stroke-width="1.5"></path><path d="M1113.41 538.07L1113.41 538.07" stroke="hsl(0, 0%, 42.3%)" stroke-width="1.5"></path><path d="M1113.41 538.07L1274.07 517.77" stroke="hsl(0, 0%, 42.3%)" stroke-width="1.5"></path><path d="M1113.41 538.07L1146.9 371.63" stroke="hsl(0, 0%, 42.3%)" stroke-width="1.5"></path><path d="M1113.41 538.07L1114.84 709.89" stroke="hsl(0, 0%, 42.3%)" stroke-width="1.5"></path><path d="M1113.41 538.07L1243.42 664.26" stroke="hsl(0, 0%, 42.3%)" stroke-width="1.5"></path><path d="M1114.84 709.89L1114.84 709.89" stroke="hsl(0, 0%, 42.3%)" stroke-width="1.5"></path><path d="M1114.84 709.89L1243.42 664.26" stroke="hsl(0, 0%, 42.3%)" stroke-width="1.5"></path><path d="M1114.84 709.89L1245.51 851.88" stroke="hsl(0, 0%, 42.3%)" stroke-width="1.5"></path><path d="M1114.84 709.89L984.59 541.89" stroke="hsl(0, 0%, 42.3%)" stroke-width="1.5"></path><path d="M1273.43 -67.13L1273.43 -67.13" stroke="hsl(0, 0%, 42.3%)" stroke-width="1.5"></path><path d="M1273.43 -67.13L1421.33 -81.92" stroke="hsl(0, 0%, 42.3%)" stroke-width="1.5"></path><path d="M1273.43 -67.13L1283.5 103.48" stroke="hsl(0, 0%, 42.3%)" stroke-width="1.5"></path><path d="M1283.5 103.48L1283.5 103.48" stroke="hsl(0, 0%, 42.3%)" stroke-width="1.5"></path><path d="M1283.5 103.48L1295.7 197.66" stroke="hsl(0, 0%, 42.3%)" stroke-width="1.5"></path><path d="M1283.5 103.48L1398.33 99.18" stroke="hsl(0, 0%, 42.3%)" stroke-width="1.5"></path><path d="M1295.7 197.66L1295.7 197.66" stroke="hsl(0, 0%, 42.3%)" stroke-width="1.5"></path><path d="M1295.7 197.66L1398.33 99.18" stroke="hsl(0, 0%, 42.3%)" stroke-width="1.5"></path><path d="M1295.7 197.66L1438.67 217.88" stroke="hsl(0, 0%, 42.3%)" stroke-width="1.5"></path><path d="M1274.07 517.77L1274.07 517.77" stroke="hsl(0, 0%, 42.3%)" stroke-width="1.5"></path><path d="M1274.07 517.77L1243.42 664.26" stroke="hsl(0, 0%, 42.3%)" stroke-width="1.5"></path><path d="M1274.07 517.77L1431.12 507.39" stroke="hsl(0, 0%, 42.3%)" stroke-width="1.5"></path><path d="M1243.42 664.26L1243.42 664.26" stroke="hsl(0, 0%, 42.3%)" stroke-width="1.5"></path><path d="M1243.42 664.26L1409.92 675.47" stroke="hsl(0, 0%, 42.3%)" stroke-width="1.5"></path><path d="M1245.51 851.88L1245.51 851.88" stroke="hsl(0, 0%, 42.3%)" stroke-width="1.5"></path><path d="M1245.51 851.88L1407.47 811.83" stroke="hsl(0, 0%, 42.3%)" stroke-width="1.5"></path><path d="M1245.51 851.88L1243.42 664.26" stroke="hsl(0, 0%, 42.3%)" stroke-width="1.5"></path><path d="M1421.33 -81.92L1421.33 -81.92" stroke="hsl(0, 0%, 42.3%)" stroke-width="1.5"></path><path d="M1421.33 -81.92L1583.49 -46.02" stroke="hsl(0, 0%, 42.3%)" stroke-width="1.5"></path><path d="M1421.33 -81.92L1398.33 99.18" stroke="hsl(0, 0%, 42.3%)" stroke-width="1.5"></path><path d="M1398.33 99.18L1398.33 99.18" stroke="hsl(0, 0%, 42.3%)" stroke-width="1.5"></path><path d="M1398.33 99.18L1438.67 217.88" stroke="hsl(0, 0%, 42.3%)" stroke-width="1.5"></path><path d="M1398.33 99.18L1273.43 -67.13" stroke="hsl(0, 0%, 42.3%)" stroke-width="1.5"></path><path d="M1438.67 217.88L1438.67 217.88" stroke="hsl(0, 0%, 42.3%)" stroke-width="1.5"></path><path d="M1438.67 217.88L1583.62 251.63" stroke="hsl(0, 0%, 42.3%)" stroke-width="1.5"></path><path d="M1438.67 217.88L1445.54 372.82" stroke="hsl(0, 0%, 42.3%)" stroke-width="1.5"></path><path d="M1438.67 217.88L1283.5 103.48" stroke="hsl(0, 0%, 42.3%)" stroke-width="1.5"></path><path d="M1438.67 217.88L1258.08 363.43" stroke="hsl(0, 0%, 42.3%)" stroke-width="1.5"></path><path d="M1445.54 372.82L1445.54 372.82" stroke="hsl(0, 0%, 42.3%)" stroke-width="1.5"></path><path d="M1445.54 372.82L1431.12 507.39" stroke="hsl(0, 0%, 42.3%)" stroke-width="1.5"></path><path d="M1445.54 372.82L1583.62 251.63" stroke="hsl(0, 0%, 42.3%)" stroke-width="1.5"></path><path d="M1445.54 372.82L1258.08 363.43" stroke="hsl(0, 0%, 42.3%)" stroke-width="1.5"></path><path d="M1445.54 372.82L1274.07 517.77" stroke="hsl(0, 0%, 42.3%)" stroke-width="1.5"></path><path d="M1431.12 507.39L1431.12 507.39" stroke="hsl(0, 0%, 42.3%)" stroke-width="1.5"></path><path d="M1431.12 507.39L1409.92 675.47" stroke="hsl(0, 0%, 42.3%)" stroke-width="1.5"></path><path d="M1409.92 675.47L1409.92 675.47" stroke="hsl(0, 0%, 42.3%)" stroke-width="1.5"></path><path d="M1409.92 675.47L1407.47 811.83" stroke="hsl(0, 0%, 42.3%)" stroke-width="1.5"></path><path d="M1409.92 675.47L1557.18 707.59" stroke="hsl(0, 0%, 42.3%)" stroke-width="1.5"></path><path d="M1407.47 811.83L1407.47 811.83" stroke="hsl(0, 0%, 42.3%)" stroke-width="1.5"></path><path d="M1407.47 811.83L1556.65 813.26" stroke="hsl(0, 0%, 42.3%)" stroke-width="1.5"></path><path d="M1407.47 811.83L1557.18 707.59" stroke="hsl(0, 0%, 42.3%)" stroke-width="1.5"></path><path d="M1407.47 811.83L1243.42 664.26" stroke="hsl(0, 0%, 42.3%)" stroke-width="1.5"></path><path d="M1407.47 811.83L1431.12 507.39" stroke="hsl(0, 0%, 42.3%)" stroke-width="1.5"></path><path d="M1583.49 -46.02L1583.49 -46.02" stroke="hsl(0, 0%, 42.3%)" stroke-width="1.5"></path><path d="M1583.49 -46.02L1398.33 99.18" stroke="hsl(0, 0%, 42.3%)" stroke-width="1.5"></path><path d="M1583.49 -46.02L1583.62 251.63" stroke="hsl(0, 0%, 42.3%)" stroke-width="1.5"></path><path d="M1583.62 251.63L1583.62 251.63" stroke="hsl(0, 0%, 42.3%)" stroke-width="1.5"></path><path d="M1557.18 707.59L1557.18 707.59" stroke="hsl(0, 0%, 42.3%)" stroke-width="1.5"></path><path d="M1557.18 707.59L1556.65 813.26" stroke="hsl(0, 0%, 42.3%)" stroke-width="1.5"></path><path d="M1556.65 813.26L1556.65 813.26" stroke="hsl(0, 0%, 42.3%)" stroke-width="1.5"></path><circle r="25" cx="658.4" cy="653.81" fill="url(#SvgjsRadialGradient1023)"></circle><circle r="25" cx="854.6" cy="555.02" fill="url(#SvgjsRadialGradient1023)"></circle><circle r="25" cx="1258.08" cy="363.43" fill="url(#SvgjsRadialGradient1023)"></circle><circle r="25" cx="1602.05" cy="549.6" fill="url(#SvgjsRadialGradient1023)"></circle><circle r="5" cx="-45.21" cy="711.77" fill="#a9a9a9"></circle><circle r="5" cx="-66.24" cy="846.49" fill="#a9a9a9"></circle><circle r="5" cx="60.75" cy="679.51" fill="#a9a9a9"></circle><circle r="5" cx="50.26" cy="819.76" fill="#a9a9a9"></circle><circle r="5" cx="240.29" cy="681.64" fill="#a9a9a9"></circle><circle r="5" cx="244.81" cy="805.93" fill="#a9a9a9"></circle><circle r="5" cx="365.77" cy="691.01" fill="#a9a9a9"></circle><circle r="5" cx="386.1" cy="844.82" fill="#a9a9a9"></circle><circle r="5" cx="499.08" cy="696.73" fill="#a9a9a9"></circle><circle r="5" cx="531.19" cy="811.6" fill="#a9a9a9"></circle><circle r="5" cx="655.32" cy="553.64" fill="#a9a9a9"></circle><circle r="5" cx="860.33" cy="670.13" fill="#a9a9a9"></circle><circle r="5" cx="795.74" cy="839.58" fill="#a9a9a9"></circle><circle r="5" cx="995.5" cy="379.11" fill="#a9a9a9"></circle><circle r="5" cx="984.59" cy="541.89" fill="#a9a9a9"></circle><circle r="5" cx="964.29" cy="643.5" fill="#a9a9a9"></circle><circle r="5" cx="940.53" cy="837.05" fill="#a9a9a9"></circle><circle r="5" cx="1144.29" cy="203.55" fill="#a9a9a9"></circle><circle r="5" cx="1146.9" cy="371.63" fill="#a9a9a9"></circle><circle r="5" cx="1113.41" cy="538.07" fill="#a9a9a9"></circle><circle r="5" cx="1114.84" cy="709.89" fill="#a9a9a9"></circle><circle r="5" cx="1273.43" cy="-67.13" fill="#a9a9a9"></circle><circle r="5" cx="1283.5" cy="103.48" fill="#a9a9a9"></circle><circle r="5" cx="1295.7" cy="197.66" fill="#a9a9a9"></circle><circle r="5" cx="1274.07" cy="517.77" fill="#a9a9a9"></circle><circle r="5" cx="1243.42" cy="664.26" fill="#a9a9a9"></circle><circle r="5" cx="1245.51" cy="851.88" fill="#a9a9a9"></circle><circle r="5" cx="1421.33" cy="-81.92" fill="#a9a9a9"></circle><circle r="5" cx="1398.33" cy="99.18" fill="#a9a9a9"></circle><circle r="5" cx="1438.67" cy="217.88" fill="#a9a9a9"></circle><circle r="5" cx="1445.54" cy="372.82" fill="#a9a9a9"></circle><circle r="5" cx="1431.12" cy="507.39" fill="#a9a9a9"></circle><circle r="5" cx="1409.92" cy="675.47" fill="#a9a9a9"></circle><circle r="5" cx="1407.47" cy="811.83" fill="#a9a9a9"></circle><circle r="5" cx="1583.49" cy="-46.02" fill="#a9a9a9"></circle><circle r="5" cx="1583.62" cy="251.63" fill="#a9a9a9"></circle><circle r="5" cx="1557.18" cy="707.59" fill="#a9a9a9"></circle><circle r="5" cx="1556.65" cy="813.26" fill="#a9a9a9"></circle></g><defs><mask id="SvgjsMask1022"><rect width="1500" height="745" fill="#ffffff"></rect></mask><radialGradient id="SvgjsRadialGradient1023"><stop stop-color="#ffffff" offset="0.1"></stop><stop stop-color="rgba(83, 83, 83, 1)" offset="0.2"></stop><stop stop-color="rgba(83, 83, 83, 0)" offset="1"></stop></radialGradient></defs></svg>