<?xml version="1.0" standalone="no"?>
<!DOCTYPE svg PUBLIC "-//W3C//DTD SVG 20010904//EN"
 "http://www.w3.org/TR/2001/REC-SVG-20010904/DTD/svg10.dtd">
<svg version="1.0" xmlns="http://www.w3.org/2000/svg"
 width="200.000000pt" height="173.000000pt" viewBox="0 0 200.000000 173.000000"
 preserveAspectRatio="xMidYMid meet">

<g transform="translate(0.000000,173.000000) scale(0.100000,-0.100000)"
fill="#000000" stroke="none">
<path d="M42 1686 l-37 -34 -3 -619 c-2 -606 -2 -619 18 -651 37 -60 52 -62
435 -62 l345 0 0 -125 0 -124 -62 -3 c-63 -3 -63 -3 -63 -33 l0 -30 325 0 325
0 0 30 c0 30 0 30 -62 33 l-63 3 0 124 0 125 345 0 c383 0 398 2 435 62 20 32
20 45 18 651 l-3 619 -37 34 -38 34 -920 0 -920 0 -38 -34z m1872 -52 c14 -14
16 -83 16 -614 l0 -599 -22 -15 c-20 -14 -123 -16 -908 -16 -785 0 -888 2
-908 16 l-22 15 0 599 c0 531 2 600 16 614 14 14 110 16 914 16 804 0 900 -2
914 -16z m-784 -1439 l0 -125 -130 0 -130 0 0 125 0 125 130 0 130 0 0 -125z"/>
<path d="M1113 1388 c-14 -18 -283 -695 -283 -712 0 -20 25 -37 43 -30 19 7
300 704 295 731 -4 22 -41 29 -55 11z"/>
<path d="M457 1169 c-120 -67 -221 -128 -224 -136 -3 -8 3 -23 13 -33 32 -32
422 -242 441 -238 10 2 19 13 21 25 4 26 -13 38 -193 136 -77 42 -148 82 -158
89 -15 12 3 24 164 113 99 55 185 108 190 117 8 16 -11 48 -29 48 -4 0 -105
-55 -225 -121z"/>
<path d="M1296 1275 c-11 -12 -13 -21 -7 -33 5 -9 91 -62 190 -117 161 -89
179 -101 164 -113 -10 -7 -81 -47 -158 -89 -180 -98 -197 -110 -193 -136 2
-12 11 -23 21 -25 19 -4 409 206 441 238 10 10 16 25 13 33 -5 12 -389 233
-438 252 -9 3 -24 -1 -33 -10z"/>
</g>
</svg>
