<?xml version="1.0" standalone="no"?>
<!DOCTYPE svg PUBLIC "-//W3C//DTD SVG 20010904//EN"
 "http://www.w3.org/TR/2001/REC-SVG-20010904/DTD/svg10.dtd">
<svg version="1.0" xmlns="http://www.w3.org/2000/svg"
 width="200.000000pt" height="73.000000pt" viewBox="0 0 200.000000 73.000000"
 preserveAspectRatio="xMidYMid meet">

<g transform="translate(0.000000,73.000000) scale(0.100000,-0.100000)"
fill="#000000" stroke="none">
<path d="M1050 715 c-19 -22 5 -45 46 -45 l34 0 0 -165 0 -165 -42 21 c-61 31
-146 24 -189 -17 -47 -44 -61 -80 -61 -150 0 -51 5 -73 26 -109 33 -56 69 -75
140 -75 47 0 61 4 87 28 l31 28 28 -28 c32 -32 89 -38 110 -13 18 21 -4 45
-41 45 l-29 0 0 320 c0 305 -1 320 -19 330 -30 15 -107 12 -121 -5z m30 -407
l45 -23 3 -73 3 -73 -39 -40 c-34 -34 -46 -39 -84 -39 -57 0 -90 25 -106 78
-17 55 -15 79 8 127 33 68 91 82 170 43z"/>
<path d="M89 359 c-20 -12 -48 -40 -62 -62 -54 -82 -28 -210 52 -264 44 -30
140 -32 191 -4 44 23 70 65 52 83 -10 10 -16 10 -30 0 -59 -43 -81 -52 -119
-52 -84 0 -134 80 -110 178 15 57 60 92 119 92 57 0 78 -14 78 -54 0 -38 19
-60 44 -50 12 5 16 20 16 61 0 54 0 54 -42 73 -58 27 -142 26 -189 -1z"/>
<path d="M505 366 c-37 -17 -80 -62 -94 -99 -17 -45 -13 -117 10 -164 29 -60
87 -93 163 -93 68 0 105 17 143 66 22 30 28 49 31 105 4 57 0 74 -19 109 -44
78 -151 113 -234 76z m146 -59 c100 -67 56 -247 -60 -247 -82 0 -131 49 -131
130 0 116 101 178 191 117z"/>
<path d="M1464 361 c-18 -11 -35 -24 -39 -31 -4 -7 -14 -2 -27 15 -16 21 -28
25 -69 25 -47 0 -50 -2 -47 -22 2 -19 10 -24 40 -26 l37 -3 3 -152 3 -152 25
0 25 0 3 118 c2 89 7 125 19 143 18 29 62 54 93 54 16 0 20 -6 20 -34 0 -37
21 -62 45 -52 11 4 15 20 15 60 0 44 -4 57 -19 66 -31 16 -93 12 -127 -9z"/>
<path d="M1765 366 c-136 -61 -138 -271 -3 -342 35 -18 131 -18 166 0 40 21
75 63 69 80 -8 19 -43 21 -54 3 -28 -46 -120 -62 -170 -30 -23 16 -53 67 -53
93 0 6 50 10 140 10 l140 0 0 43 c0 92 -64 157 -154 157 -28 -1 -64 -7 -81
-14z m146 -65 c16 -16 29 -39 29 -50 0 -20 -5 -21 -105 -21 -115 0 -123 5 -84
54 43 55 115 62 160 17z"/>
</g>
</svg>
